<svg width="32" height="32" viewBox="0 0 32 32" fill="none" xmlns="http://www.w3.org/2000/svg">
<rect width="32" height="32" rx="16" fill="url(#paint0_linear_3_1012)"/>
<path d="M16 8C15.6817 8 15.3765 8.12643 15.1515 8.35147C14.9264 8.57652 14.8 8.88174 14.8 9.2C14.8 9.2516 14.812 9.3008 14.8186 9.35C12.7444 9.8798 11.2 11.7638 11.2 14V19.4C11.2 19.7396 10.9396 20 10.6 20H10V21.2H14.3128C14.2407 21.392 14.2026 21.595 14.2 21.8C14.2 22.787 15.013 23.6 16 23.6C16.987 23.6 17.8 22.787 17.8 21.8C17.7974 21.595 17.7593 21.392 17.6872 21.2H22V20H21.4C21.0604 20 20.8 19.7396 20.8 19.4V14.1686C20.8 11.9138 19.2928 9.9026 17.1814 9.35C17.188 9.3008 17.2 9.2516 17.2 9.2C17.2 8.88174 17.0736 8.57652 16.8485 8.35147C16.6235 8.12643 16.3183 8 16 8ZM15.7372 10.4C15.8242 10.3928 15.9112 10.4 16 10.4H16.1128C18.0718 10.4588 19.6 12.176 19.6 14.1686V19.4C19.6 19.6112 19.6444 19.8104 19.7128 20H12.2878C12.3597 19.808 12.3976 19.605 12.4 19.4V14C12.3983 13.0892 12.7416 12.2115 13.3609 11.5436C13.9802 10.8756 14.8294 10.467 15.7378 10.4H15.7372ZM16 21.2C16.3378 21.2 16.6 21.4628 16.6 21.8C16.6 22.1378 16.3372 22.4 16 22.4C15.6622 22.4 15.4 22.1372 15.4 21.8C15.4 21.4622 15.6628 21.2 16 21.2Z" fill="#25283C"/>
<defs>
<linearGradient id="paint0_linear_3_1012" x1="-0.105438" y1="-1.54367" x2="36.9154" y2="25.0927" gradientUnits="userSpaceOnUse">
<stop stop-color="#D7C7F4"/>
<stop offset="1" stop-color="#F8BDAD"/>
</linearGradient>
</defs>
</svg>
