<svg width="24" height="24" viewBox="0 0 24 24" fill="none" xmlns="http://www.w3.org/2000/svg">
<path d="M2.78925 1.71069L1.71 2.78994L6.375 7.42944L14.6955 15.7499L16.125 17.2034L21.2107 22.2884L22.2892 21.2107L17.625 16.5472C20.8005 14.9737 22.9305 12.6389 23.0625 12.4919L23.508 11.9999L23.0625 11.5079C22.86 11.2822 18.0645 5.99994 12 5.99994C10.5322 5.99994 9.14625 6.32244 7.875 6.79719L2.78925 1.71069ZM12 7.49994C13.614 7.49994 15.141 7.95369 16.5 8.57844C16.9877 9.38445 17.2469 10.3079 17.25 11.2499C17.2496 12.5615 16.7559 13.8249 15.867 14.7892L13.7347 12.6562C14.0475 12.2722 14.25 11.7862 14.25 11.2499C14.25 10.6532 14.0129 10.0809 13.591 9.65895C13.169 9.237 12.5967 8.99994 12 8.99994C11.4637 8.99994 10.9777 9.20244 10.5938 9.51594L9.0705 7.99194C10.002 7.70469 10.9777 7.49994 12 7.49994ZM5.01525 8.17944C2.61 9.65919 1.0485 11.3819 0.937501 11.5079L0.492001 11.9999L0.937501 12.4919C1.131 12.7094 5.5725 17.5694 11.2972 17.9534C11.5282 17.9759 11.7622 17.9999 12 17.9999C12.2352 17.9963 12.47 17.9806 12.7035 17.9527C13.3109 17.9155 13.9144 17.8294 14.508 17.6954L13.1715 16.3589C12.7877 16.4505 12.3946 16.4978 12 16.4999C9.105 16.4999 6.75 14.1449 6.75 11.2499C6.75 10.8517 6.8025 10.4624 6.891 10.0777L5.01525 8.17944ZM5.4375 9.70269C5.31494 10.2094 5.25202 10.7287 5.25 11.2499C5.24693 12.501 5.59626 13.7275 6.258 14.7892C4.91632 14.011 3.67292 13.0746 2.5545 11.9999C3.44113 11.1453 4.40641 10.3761 5.4375 9.70269ZM18.5625 9.70269C19.593 10.3769 20.5582 11.146 21.4455 11.9999C20.7712 12.6502 19.4385 13.8284 17.7188 14.8124C18.3891 13.7449 18.7464 12.5106 18.75 11.2499C18.75 10.7249 18.6825 10.2074 18.5625 9.70269Z" fill="#8C5AE8"/>
</svg>
