<svg width="174" height="38" viewBox="0 0 174 38" fill="none" xmlns="http://www.w3.org/2000/svg">
<path d="M15.5378 5.91113H19.3547V29.5556H16.0782L3.81689 12.6667V29.5556H0V5.91113H3.51289L15.5378 22.5298V5.91113Z" fill="black"/>
<path d="M81.8273 5.91113V9.52535H74.8691V29.5556H71.0184V9.52535H64.0602V5.91113H81.8273Z" fill="black"/>
<path d="M89.4394 25.8738H99.6741V29.5556H85.555V5.91113H99.3025V9.55913H89.4394V15.7067H98.4243V19.2871H89.4394V25.8738Z" fill="black"/>
<path d="M108.209 25.8738H118.443V29.5556H104.324V5.91113H118.072V9.55913H108.209V15.7067H117.193V19.2871H108.209V25.8738Z" fill="black"/>
<path d="M136.739 9.55913H126.978V16.2471H135.861V19.7938H126.978V29.5556H123.093V5.91113H136.739V9.55913Z" fill="black"/>
<path d="M144.823 25.8738H155.058V29.5556H140.939V5.91113H154.686V9.55913H144.823V15.7067H153.808V19.2871H144.823V25.8738Z" fill="black"/>
<path d="M163.592 25.8738H173.827V29.5556H159.708V5.91113H173.455V9.55913H163.592V15.7067H172.577V19.2871H163.592V25.8738Z" fill="black"/>
<path d="M26.1096 5.9375V29.6875H32.0471V35.7366L33.9767 34.1774L39.5806 29.6875H59.3596V5.9375H26.1096ZM28.4846 8.3125H56.9846V27.3125H38.7636L38.4299 27.5726L34.4221 30.7634V27.3125H28.4846V8.3125ZM33.2346 14.25V16.625H52.2346V14.25H33.2346ZM33.2346 19V21.375H47.4846V19H33.2346Z" fill="url(#paint0_linear_17_111)"/>
<defs>
<linearGradient id="paint0_linear_17_111" x1="26" y1="4.5" x2="61.5" y2="33" gradientUnits="userSpaceOnUse">
<stop stop-color="#D7C7F4"/>
<stop offset="1" stop-color="#F8BDAD"/>
</linearGradient>
</defs>
</svg>
