<svg width="32" height="32" viewBox="0 0 32 32" fill="none" xmlns="http://www.w3.org/2000/svg">
<rect width="32" height="32" rx="16" fill="#F5F5F5"/>
<path d="M20.3556 8.5C20.2568 8.50243 20.1585 8.51563 20.0625 8.53937L9.90625 11.2144C9.50481 11.3207 9.14954 11.5562 8.89536 11.8846C8.64118 12.213 8.50224 12.616 8.5 13.0312V21.625C8.5 22.6531 9.34688 23.5 10.375 23.5H21.625C22.6531 23.5 23.5 22.6531 23.5 21.625V13.5C23.5 12.4719 22.6531 11.625 21.625 11.625H13.2656L20.375 9.75V11H21.625V9.75C21.625 9.04687 21.0269 8.49 20.3556 8.5ZM10.375 12.875H21.625C21.9788 12.875 22.25 13.1462 22.25 13.5V21.625C22.25 21.9787 21.9788 22.25 21.625 22.25H10.375C10.0213 22.25 9.75 21.9787 9.75 21.625V13.5C9.75 13.1462 10.0213 12.875 10.375 12.875ZM20.0625 16.625C19.8139 16.625 19.5754 16.7238 19.3996 16.8996C19.2238 17.0754 19.125 17.3139 19.125 17.5625C19.125 17.8111 19.2238 18.0496 19.3996 18.2254C19.5754 18.4012 19.8139 18.5 20.0625 18.5C20.3111 18.5 20.5496 18.4012 20.7254 18.2254C20.9012 18.0496 21 17.8111 21 17.5625C21 17.3139 20.9012 17.0754 20.7254 16.8996C20.5496 16.7238 20.3111 16.625 20.0625 16.625Z" fill="#8C5AE8"/>
</svg>
